<?xml version="1.0" standalone="no"?>
<!DOCTYPE svg PUBLIC "-//W3C//DTD SVG 20010904//EN"
 "http://www.w3.org/TR/2001/REC-SVG-20010904/DTD/svg10.dtd">
<svg version="1.0" xmlns="http://www.w3.org/2000/svg"
 width="357.000000pt" height="296.000000pt" viewBox="0 0 357.000000 296.000000"
 preserveAspectRatio="xMidYMid meet">

<g transform="translate(0.000000,296.000000) scale(0.100000,-0.100000)"
fill="#000000" stroke="none">
<path d="M0 1480 l0 -1480 1785 0 1785 0 0 1480 0 1480 -1785 0 -1785 0 0
-1480z m1758 953 c-21 -2 -55 -2 -75 0 -21 2 -4 4 37 4 41 0 58 -2 38 -4z m91
-243 c6 -91 15 -216 20 -278 10 -112 9 -118 -24 -211 -3 -8 -8 -12 -10 -9 -3
3 3 29 14 59 15 46 17 68 10 154 -5 55 -13 172 -18 260 -6 88 -13 185 -15 215
-5 50 -5 52 4 15 5 -22 14 -114 19 -205z m-299 193 c-11 -56 -54 -143 -89
-183 -17 -19 -55 -71 -85 -115 -29 -44 -90 -129 -134 -188 -74 -98 -82 -106
-87 -84 -4 14 -5 36 -2 48 3 16 5 11 6 -15 l1 -38 95 126 c52 69 95 128 95
131 0 8 78 114 110 150 30 34 80 142 80 173 0 11 -6 23 -12 25 -7 3 -3 6 8 6
19 1 21 -3 14 -36z m57 -5 c-3 -8 -6 -5 -6 6 -1 11 2 17 5 13 3 -3 4 -12 1
-19z m524 -44 l51 -25 -6 -52 c-3 -29 -10 -131 -16 -227 -17 -297 -20 -324
-32 -335 -8 -7 -9 -5 -4 10 4 11 12 106 17 210 5 105 14 235 19 289 6 55 9
100 8 101 -2 2 -25 14 -53 28 -27 14 -46 26 -42 27 4 0 30 -12 58 -26z m-244
-76 c-2 -18 -4 -6 -4 27 0 33 2 48 4 33 2 -15 2 -42 0 -60z m-697 18 c0 -2 -8
-10 -17 -17 -16 -13 -17 -12 -4 4 13 16 21 21 21 13z m1194 -124 c40 -41 59
-69 62 -91 2 -16 11 -79 20 -138 20 -136 27 -243 14 -223 -5 8 -10 40 -10 71
0 31 -4 80 -10 110 -5 30 -14 90 -21 134 -12 79 -13 81 -73 140 -34 34 -77 73
-96 88 -33 27 -33 27 10 -2 25 -16 71 -56 104 -89z m-817 36 c-3 -7 -5 -2 -5
12 0 14 2 19 5 13 2 -7 2 -19 0 -25z m-456 -121 c4 -73 10 -177 14 -232 7 -94
6 -101 -15 -125 l-21 -25 17 31 c15 29 16 45 6 177 -7 80 -12 172 -12 205 0
96 -5 101 -59 50 l-46 -43 49 52 c28 29 52 50 55 47 3 -3 8 -64 12 -137z
m1126 101 c-3 -7 -5 -2 -5 12 0 14 2 19 5 13 2 -7 2 -19 0 -25z m-717 15 c0
-19 -51 -264 -66 -318 -9 -33 -22 -87 -29 -120 -7 -33 -13 -49 -14 -35 0 14
11 70 25 125 14 55 34 145 44 200 11 55 22 111 25 124 6 22 5 23 -12 10 -16
-13 -17 -12 -4 4 14 17 31 23 31 10z m377 -50 c-3 -10 -5 -2 -5 17 0 19 2 27
5 18 2 -10 2 -26 0 -35z m330 -70 c-2 -16 -4 -3 -4 27 0 30 2 43 4 28 2 -16 2
-40 0 -55z m-680 35 c-3 -8 -6 -5 -6 6 -1 11 2 17 5 13 3 -3 4 -12 1 -19z
m-107 -12 c0 -2 -8 -10 -17 -17 -16 -13 -17 -12 -4 4 13 16 21 21 21 13z m467
-28 c-3 -8 -6 -5 -6 6 -1 11 2 17 5 13 3 -3 4 -12 1 -19z m-937 -2 c0 -2 -8
-10 -17 -17 -16 -13 -17 -12 -4 4 13 16 21 21 21 13z m430 -26 c-6 -11 -13
-20 -16 -20 -2 0 0 9 6 20 6 11 13 20 16 20 2 0 0 -9 -6 -20z m127 -42 c-3 -8
-6 -5 -6 6 -1 11 2 17 5 13 3 -3 4 -12 1 -19z m-147 8 c0 -2 -8 -10 -17 -17
-16 -13 -17 -12 -4 4 13 16 21 21 21 13z m537 -18 c-3 -8 -6 -5 -6 6 -1 11 2
17 5 13 3 -3 4 -12 1 -19z m594 -30 c-9 -20 -10 -18 -10 17 0 31 2 36 9 23 6
-10 7 -25 1 -40z m-294 -30 c-2 -13 -4 -5 -4 17 -1 22 1 32 4 23 2 -10 2 -28
0 -40z m-867 39 c0 -2 -12 -14 -27 -28 l-28 -24 24 28 c23 25 31 32 31 24z
m1230 -108 c16 -42 32 -96 35 -120 4 -32 -2 -21 -20 39 -14 46 -36 105 -50
132 -14 27 -25 53 -25 57 1 20 33 -38 60 -108z m-1687 86 c-3 -9 -8 -14 -10
-11 -3 3 -2 9 2 15 9 16 15 13 8 -4z m1034 -32 c-3 -10 -5 -4 -5 12 0 17 2 24
5 18 2 -7 2 -21 0 -30z m-627 -7 c0 -2 -8 -10 -17 -17 -16 -13 -17 -12 -4 4
13 16 21 21 21 13z m1217 -18 c-3 -8 -6 -5 -6 6 -1 11 2 17 5 13 3 -3 4 -12 1
-19z m-1020 -20 c-3 -8 -6 -5 -6 6 -1 11 2 17 5 13 3 -3 4 -12 1 -19z m-227
-2 c0 -2 -8 -10 -17 -17 -16 -13 -17 -12 -4 4 13 16 21 21 21 13z m1257 -48
c-3 -7 -5 -2 -5 12 0 14 2 19 5 13 2 -7 2 -19 0 -25z m-1040 0 c-3 -8 -6 -5
-6 6 -1 11 2 17 5 13 3 -3 4 -12 1 -19z m720 -25 c-3 -10 -5 -2 -5 17 0 19 2
27 5 18 2 -10 2 -26 0 -35z m-730 -45 c-3 -8 -6 -5 -6 6 -1 11 2 17 5 13 3 -3
4 -12 1 -19z m441 -23 c7 -15 8 -25 2 -25 -6 0 -10 7 -10 15 0 8 -4 15 -10 15
-5 0 -10 5 -10 10 0 19 17 10 28 -15z m642 -80 c-23 -24 -43 -35 -62 -35 -33
0 -34 3 -7 41 17 24 27 29 62 29 l41 0 -34 -35z m-590 -5 c0 -28 -2 -30 -40
-30 -38 0 -40 2 -40 30 0 28 2 30 40 30 38 0 40 -2 40 -30z m293 24 c32 -6 37
-10 37 -35 l0 -28 -69 6 c-38 3 -81 3 -96 -1 -22 -6 -26 -11 -23 -39 3 -32 4
-32 68 -39 91 -10 108 -15 121 -39 15 -30 13 -106 -4 -133 -26 -39 -112 -55
-221 -40 -43 6 -46 9 -46 36 l0 28 78 -6 c98 -8 125 3 120 49 -3 31 -4 32 -66
39 -115 13 -132 26 -132 102 0 40 5 57 20 71 32 29 131 42 213 29z m-1228 -16
c34 -16 51 -73 39 -136 -8 -40 -14 -50 -44 -64 -21 -11 -58 -18 -92 -18 l-58
0 0 -55 0 -55 -45 0 -45 0 0 170 0 170 110 0 c62 0 120 -5 135 -12z m515 -38
c0 -39 1 -40 35 -40 28 0 35 -4 35 -20 0 -16 -7 -20 -35 -20 l-36 0 3 -82 3
-83 33 -3 c27 -3 32 -7 32 -29 0 -25 -1 -25 -55 -21 -82 7 -94 22 -97 127 -3
86 -3 86 -30 89 -20 2 -28 9 -28 22 0 13 8 20 28 22 23 3 27 8 30 41 3 36 4
37 43 37 39 0 39 0 39 -40z m-198 -57 c14 -14 22 -39 26 -72 l5 -51 -87 0
c-84 0 -86 -1 -86 -24 0 -38 23 -49 95 -44 62 4 65 3 65 -18 0 -19 -7 -24 -46
-30 -61 -9 -133 2 -164 25 -23 16 -25 26 -28 104 -2 77 0 88 18 104 30 26 57
32 123 29 43 -2 63 -8 79 -23z m488 -2 c0 -25 -4 -29 -40 -35 -51 -8 -60 -26
-60 -120 l0 -76 -35 0 -35 0 0 125 0 125 35 0 c19 0 35 -5 35 -10 0 -6 12 -4
28 4 15 8 37 15 50 16 18 0 22 -5 22 -29z m751 0 c16 -19 19 -41 19 -128 l0
-104 -47 0 c-27 0 -73 -2 -105 -5 -72 -7 -98 14 -98 78 0 63 19 78 102 78 l69
0 -3 28 c-3 26 -5 27 -75 30 -62 2 -73 5 -73 21 0 30 12 33 104 29 78 -4 91
-7 107 -27z m-621 -106 l0 -125 -40 0 -40 0 0 125 0 125 40 0 40 0 0 -125z
m-1039 -252 c-6 -32 -13 -75 -16 -96 -3 -21 -10 -35 -16 -31 -6 3 -6 10 -1 17
5 7 12 39 16 72 8 69 17 108 23 101 2 -2 0 -30 -6 -63z m108 30 c-21 -86 -23
-107 -8 -98 11 6 12 5 2 -6 -25 -26 -31 5 -14 73 9 38 19 68 22 68 4 0 3 -17
-2 -37z m237 10 c-7 -16 -31 -73 -51 -128 -47 -127 -117 -285 -126 -285 -3 0
-13 8 -20 18 -12 15 -12 16 2 4 14 -11 21 0 59 85 23 53 57 135 75 182 52 135
59 151 67 151 5 0 2 -12 -6 -27z m418 15 c-4 -7 -25 -39 -47 -71 -41 -61 -43
-83 -5 -51 l23 19 -19 -22 c-21 -25 -46 -30 -46 -10 0 13 87 147 96 147 3 0 2
-6 -2 -12z m310 -61 c-7 -37 -20 -118 -28 -180 -21 -156 -70 -382 -87 -401 -4
-5 -1 20 7 55 8 35 24 100 34 144 10 44 24 121 30 170 19 152 46 293 55 284 2
-2 -3 -35 -11 -72z m380 -93 c36 -72 66 -136 66 -142 0 -15 -89 -111 -143
-154 -50 -39 -67 -46 -67 -27 0 5 4 8 9 5 13 -8 90 55 145 120 l49 56 -77 149
c-42 82 -76 152 -76 156 0 16 30 -37 94 -163z m216 138 c-1 -26 -54 -147 -90
-202 -29 -45 -50 -57 -50 -29 0 6 4 8 9 5 22 -14 127 206 114 240 -4 12 -3 15
5 10 7 -4 12 -15 12 -24z m-530 -54 c9 -37 11 -102 6 -228 -9 -264 -14 -296
-43 -309 -13 -6 -29 -11 -36 -11 -7 1 2 7 19 14 29 13 31 18 38 77 3 35 9 143
12 239 5 140 3 185 -9 223 -8 26 -11 47 -7 47 4 0 14 -23 20 -52z m-341 -37
c6 -30 6 -41 -2 -38 -6 2 -12 21 -14 43 -1 21 -7 40 -13 42 -5 2 -7 8 -4 14 9
14 21 -8 33 -61z m661 34 c0 -5 -5 -3 -10 5 -5 8 -10 20 -10 25 0 6 5 3 10 -5
5 -8 10 -19 10 -25z m-700 1 c0 -2 -8 -10 -17 -17 -16 -13 -17 -12 -4 4 13 16
21 21 21 13z m-733 -48 c-3 -7 -5 -2 -5 12 0 14 2 19 5 13 2 -7 2 -19 0 -25z
m800 0 c-3 -7 -5 -2 -5 12 0 14 2 19 5 13 2 -7 2 -19 0 -25z m270 10 c-3 -8
-6 -5 -6 6 -1 11 2 17 5 13 3 -3 4 -12 1 -19z m130 -75 c-3 -10 -5 -4 -5 12 0
17 2 24 5 18 2 -7 2 -21 0 -30z m-140 5 c-3 -8 -6 -5 -6 6 -1 11 2 17 5 13 3
-3 4 -12 1 -19z m-1070 -35 c-3 -10 -5 -2 -5 17 0 19 2 27 5 18 2 -10 2 -26 0
-35z m1503 12 c0 -5 -5 -3 -10 5 -5 8 -10 20 -10 25 0 6 5 3 10 -5 5 -8 10
-19 10 -25z m-443 -47 c-3 -8 -6 -5 -6 6 -1 11 2 17 5 13 3 -3 4 -12 1 -19z
m-760 -10 c-3 -8 -6 -5 -6 6 -1 11 2 17 5 13 3 -3 4 -12 1 -19z m-266 -35 c13
-16 12 -17 -3 -4 -10 7 -18 15 -18 17 0 8 8 3 21 -13z m276 -15 c-3 -8 -6 -5
-6 6 -1 11 2 17 5 13 3 -3 4 -12 1 -19z m740 -10 c-3 -8 -6 -5 -6 6 -1 11 2
17 5 13 3 -3 4 -12 1 -19z m-777 -22 c0 -7 8 -40 19 -72 20 -66 34 -130 26
-122 -11 11 -63 218 -54 213 5 -4 9 -12 9 -19z m-190 -11 c13 -14 21 -25 18
-25 -2 0 -15 11 -28 25 -13 14 -21 25 -18 25 2 0 15 -11 28 -25z m1149 -60
c17 -44 31 -85 31 -92 0 -11 -77 -63 -93 -63 -4 0 -6 12 -6 28 2 23 2 24 6 4
l4 -22 40 22 c21 12 39 25 39 30 0 4 -13 41 -30 83 -27 68 -37 106 -26 94 3
-2 19 -40 35 -84z m-192 33 c-3 -8 -6 -5 -6 6 -1 11 2 17 5 13 3 -3 4 -12 1
-19z m-710 -20 c-3 -8 -6 -5 -6 6 -1 11 2 17 5 13 3 -3 4 -12 1 -19z m860 0
c-3 -8 -6 -5 -6 6 -1 11 2 17 5 13 3 -3 4 -12 1 -19z m-160 -40 c-3 -8 -6 -5
-6 6 -1 11 2 17 5 13 3 -3 4 -12 1 -19z m-10 -50 c-3 -8 -6 -5 -6 6 -1 11 2
17 5 13 3 -3 4 -12 1 -19z m-670 -10 c-3 -8 -6 -5 -6 6 -1 11 2 17 5 13 3 -3
4 -12 1 -19z m660 -40 c-3 -8 -6 -5 -6 6 -1 11 2 17 5 13 3 -3 4 -12 1 -19z
m-597 -48 c8 -5 11 -10 5 -10 -5 0 -17 5 -25 10 -8 5 -10 10 -5 10 6 0 17 -5
25 -10z m137 -46 c-3 -3 -12 -4 -19 -1 -8 3 -5 6 6 6 11 1 17 -2 13 -5z m221
-31 c-10 -2 -26 -2 -35 0 -10 3 -2 5 17 5 19 0 27 -2 18 -5z"/>
<path d="M880 1535 l0 -68 48 7 c57 7 75 28 68 75 -3 18 -6 35 -8 36 -2 2 -27
6 -55 10 l-53 7 0 -67z"/>
<path d="M1240 1520 c-18 -4 -26 -14 -28 -33 -3 -26 -2 -27 47 -27 52 0 59 7
41 39 -12 24 -29 29 -60 21z"/>
<path d="M2440 1385 c0 -35 0 -35 45 -35 45 0 45 0 45 35 0 35 0 35 -45 35
-45 0 -45 0 -45 -35z"/>
</g>
</svg>
